HIERARCHY
ROOT Hips
{
	OFFSET 34.768398 7.341424 99.096100
	CHANNELS 6 Xposition Yposition Zposition Xrotation Yrotation Zrotation
	JOINT spine
	{
		OFFSET 0.000000 -0.507025 8.817047
		CHANNELS 3 Xrotation Yrotation Zrotation
		JOINT spine1
		{
			OFFSET 0.000000 -0.000002 10.776596
			CHANNELS 3 Xrotation Yrotation Zrotation
			JOINT spine2
			{
				OFFSET 0.000000 -0.000001 10.325897
				CHANNELS 3 Xrotation Yrotation Zrotation
				JOINT Neck
				{
					OFFSET 0.000000 -1.263954 26.511002
					CHANNELS 3 Xrotation Yrotation Zrotation
					JOINT Head
					{
						OFFSET 0.000000 -0.000001 8.009659
						CHANNELS 3 Xrotation Yrotation Zrotation
						End Site
						{
							OFFSET 0.000000 6.393857 19.387894
						}
					}
				}
				JOINT RightShoulder
				{
					OFFSET -4.347950 0.605420 11.151199
					CHANNELS 3 Xrotation Yrotation Zrotation
					JOINT RightArm
					{
						OFFSET 0.000000 -0.000002 14.625793
						CHANNELS 3 Xrotation Yrotation Zrotation
						JOINT RightArmRoll
						{
							OFFSET 0.000000 -0.000001 7.383392
							CHANNELS 3 Xrotation Yrotation Zrotation
							JOINT RightForeArm
							{
								OFFSET 0.000000 -0.000004 21.505203
								CHANNELS 3 Xrotation Yrotation Zrotation
								JOINT RightForeArmRoll
								{
									OFFSET 0.000000 -0.000001 8.285324
									CHANNELS 3 Xrotation Yrotation Zrotation
									JOINT RightHand
									{
										OFFSET 0.000000 -0.000002 16.626801
										CHANNELS 3 Xrotation Yrotation Zrotation
										End Site
										{
											OFFSET 0.000000 0.000000 0.100006
										}
									}
								}
							}
						}
					}
				}
				JOINT LeftShoulder
				{
					OFFSET 4.347950 0.605420 11.151199
					CHANNELS 3 Xrotation Yrotation Zrotation
					JOINT LeftArm
					{
						OFFSET 0.000000 -0.000002 14.625793
						CHANNELS 3 Xrotation Yrotation Zrotation
						JOINT LeftArmRoll
						{
							OFFSET 0.000000 -0.000001 7.383392
							CHANNELS 3 Xrotation Yrotation Zrotation
							JOINT LeftForeArm
							{
								OFFSET 0.000000 -0.000004 21.505203
								CHANNELS 3 Xrotation Yrotation Zrotation
								JOINT LeftForeArmRoll
								{
									OFFSET 0.000000 -0.000001 8.285324
									CHANNELS 3 Xrotation Yrotation Zrotation
									JOINT LeftHand
									{
										OFFSET 0.000000 -0.000002 16.626801
										CHANNELS 3 Xrotation Yrotation Zrotation
										End Site
										{
											OFFSET 0.000000 0.000000 0.100006
										}
									}
								}
							}
						}
					}
				}
			}
		}
	}
	JOINT RightUpLeg
	{
		OFFSET -7.815100 1.202170 -1.433090
		CHANNELS 3 Xrotation Yrotation Zrotation
		JOINT RightUpLegRoll
		{
			OFFSET 0.000000 -0.000003 19.495895
			CHANNELS 3 Xrotation Yrotation Zrotation
			JOINT RightLeg
			{
				OFFSET 0.000000 0.000004 -24.142700
				CHANNELS 3 Xrotation Yrotation Zrotation
				JOINT RightLegRoll
				{
					OFFSET 0.000000 -0.000004 24.221703
					CHANNELS 3 Xrotation Yrotation Zrotation
					JOINT RightFoot
					{
						OFFSET 0.000000 -0.000003 20.160500
						CHANNELS 3 Xrotation Yrotation Zrotation
						JOINT RightToeBase
						{
							OFFSET 0.000000 -0.000003 16.853195
							CHANNELS 3 Xrotation Yrotation Zrotation
							End Site
							{
								OFFSET 0.007143 0.940778 8.161865
							}
						}
					}
				}
			}
		}
	}
	JOINT LeftUpLeg
	{
		OFFSET 7.815102 1.202170 -1.433090
		CHANNELS 3 Xrotation Yrotation Zrotation
		JOINT LeftUpLegRoll
		{
			OFFSET 0.000000 -0.000003 19.496002
			CHANNELS 3 Xrotation Yrotation Zrotation
			JOINT LeftLeg
			{
				OFFSET 0.000000 -0.000004 24.142593
				CHANNELS 3 Xrotation Yrotation Zrotation
				JOINT LeftLegRoll
				{
					OFFSET 0.000000 -0.000004 24.445602
					CHANNELS 3 Xrotation Yrotation Zrotation
					JOINT LeftFoot
					{
						OFFSET 0.000000 -0.000004 19.936600
						CHANNELS 3 Xrotation Yrotation Zrotation
						JOINT LeftToeBase
						{
							OFFSET 0.000000 -0.000003 16.853195
							CHANNELS 3 Xrotation Yrotation Zrotation
							End Site
							{
								OFFSET -0.032013 0.940780 8.161865
							}
						}
					}
				}
			}
		}
	}
}
MOTION
Frames: 6
Frame Time: 0.041667
48.312901 -9.721210 100.234993 -0.057885 -0.854793 2.457366 -2.279214 -0.125898 -0.009381 -0.555666 -0.251617 -0.043686 1.089431 -0.252020 -0.040704 18.640297 6.049613 1.353690 -0.341746 1.652671 1.389737 -7.519292 -65.052586 -9.347331 -43.593327 -115.501887 -29.699292 0.000001 0.000003 0.000000 0.194814 -14.366821 -0.143650 -0.000001 -0.000003 -3.005920 -5.000221 -7.998753 0.000163 -10.746799 65.171657 13.032650 -40.924762 113.039440 33.046962 0.000002 0.000018 0.000000 3.656367 11.634017 0.081622 0.000000 -0.000007 3.002800 -5.000227 7.998730 -0.000166 -3.203753 -177.937220 -0.262878 -179.999991 0.000005 -1.014005 170.989660 -2.073115 -0.595668 0.000002 0.000000 0.158451 70.157955 6.823052 2.217260 25.464479 -7.351316 0.011403 -0.828561 178.550147 2.830716 -0.000005 -0.000004 -1.034130 -5.858015 2.821343 0.380487 -0.000001 0.000005 -0.079659 69.347198 -6.877951 -2.120569 25.456786 7.348009 0.000222 
48.314301 -9.737447 100.232994 -0.062329 -0.855183 2.454849 -2.276946 -0.125813 -0.010451 -0.551123 -0.251926 -0.043633 1.093971 -0.252336 -0.040645 18.640925 6.044762 1.353571 -0.330808 1.657262 1.388857 -7.521695 -65.049950 -9.350020 -43.570135 -115.484511 -29.755340 0.000002 0.000004 0.000001 0.270165 -14.424745 -0.129079 -0.000001 -0.000002 -3.005919 -5.000221 -7.998753 0.000163 -10.738567 65.157170 13.022669 -40.818939 113.017576 32.990555 -0.000000 0.000019 0.000001 3.770976 11.665184 0.068559 -0.000003 -0.000007 3.002801 -5.000225 7.998732 -0.000165 -3.196386 -177.934214 -0.259828 -179.999991 0.000005 -1.014005 170.996176 -2.075136 -0.595747 0.000002 0.000000 0.158203 70.154294 6.823533 2.217170 25.464477 -7.351317 0.011403 -0.824289 178.551144 2.830664 -0.000005 -0.000004 -1.034130 -5.858824 2.821110 0.380770 -0.000002 0.000004 -0.079630 69.345709 -6.877951 -2.120559 25.456385 7.348017 0.000811 
48.327999 -9.731347 100.241997 -0.066981 -0.855715 2.452320 -2.274676 -0.125687 -0.011535 -0.546582 -0.252192 -0.043509 1.098511 -0.252607 -0.040515 18.642043 6.039419 1.353390 -0.320705 1.662844 1.387847 -7.524340 -65.047416 -9.352988 -43.548159 -115.467572 -29.809763 0.000001 0.000003 -0.000000 0.341241 -14.481051 -0.114626 -0.000002 -0.000002 -3.005919 -5.000219 -7.998750 0.000162 -10.730522 65.143298 13.012945 -40.718661 112.996341 32.938468 0.000002 0.000020 0.000001 3.884025 11.695320 0.055540 -0.000001 -0.000007 3.002799 -5.000231 7.998731 -0.000165 -3.188215 -177.932193 -0.256591 -179.999991 0.000005 -1.014005 171.003403 -2.077147 -0.594799 0.000002 0.000000 0.157922 70.150414 6.823974 2.217285 25.464479 -7.351319 0.011404 -0.819332 178.552155 2.830764 -0.000005 -0.000005 -1.034130 -5.858914 2.820791 0.381009 -0.000001 0.000005 -0.079587 69.344021 -6.877942 -2.120564 25.455780 7.348017 0.001706 
48.325802 -9.721452 100.239990 -0.071773 -0.856348 2.449777 -2.272405 -0.125532 -0.012629 -0.542039 -0.252426 -0.043335 1.103051 -0.252849 -0.040335 18.643348 6.033728 1.353195 -0.311175 1.669115 1.386734 -7.527129 -65.044957 -9.356139 -43.527214 -115.451043 -29.863223 0.000000 0.000003 0.000001 0.409329 -14.536244 -0.100225 -0.000002 -0.000003 -3.005920 -5.000216 -7.998752 0.000162 -10.722631 65.129904 13.003413 -40.619272 112.976745 32.886207 0.000001 0.000020 0.000001 3.995989 11.724720 0.042518 -0.000002 -0.000007 3.002801 -5.000229 7.998730 -0.000166 -3.179502 -177.929201 -0.253314 -179.999991 0.000005 -1.014005 171.011162 -2.079175 -0.594832 0.000003 0.000000 0.157620 70.146507 6.824349 2.217492 25.464475 -7.351316 0.011403 -0.813894 178.553152 2.830962 -0.000005 -0.000004 -1.034130 -5.858500 2.820425 0.381220 -0.000001 0.000005 -0.079534 69.342123 -6.877957 -2.120584 25.455068 7.348011 0.002799 
48.316502 -9.720197 100.233994 -0.076647 -0.857037 2.447244 -2.270125 -0.125361 -0.013730 -0.537498 -0.252642 -0.043132 1.107591 -0.253071 -0.040127 18.644856 6.027859 1.352955 -0.301982 1.675787 1.385572 -7.530011 -65.042498 -9.359382 -43.506604 -115.434637 -29.916089 0.000001 0.000003 -0.000001 0.475729 -14.590817 -0.085801 -0.000001 -0.000004 -3.005919 -5.000221 -7.998751 0.000163 -10.714817 65.116715 12.993965 -40.523075 112.956999 32.836715 -0.000000 0.000019 0.000001 4.107333 11.753678 0.029451 -0.000004 -0.000007 3.002800 -5.000227 7.998732 -0.000166 -3.170473 -177.926182 -0.249983 -179.999991 0.000005 -1.014005 171.019221 -2.081191 -0.594851 0.000002 0.000000 0.157304 70.142484 6.824684 2.217796 25.464475 -7.351318 0.011403 -0.808186 178.554136 2.831225 -0.000005 -0.000004 -1.034130 -5.857808 2.820031 0.381414 -0.000001 0.000005 -0.079475 69.340217 -6.877938 -2.120598 25.454266 7.348007 0.004016 
48.320599 -9.735810 100.237000 -0.081538 -0.857740 2.444700 -2.267855 -0.125185 -0.014831 -0.532956 -0.252854 -0.042922 1.112130 -0.253291 -0.039912 18.646452 6.021931 1.352715 -0.292869 1.682558 1.384379 -7.532893 -65.040039 -9.362649 -43.486144 -115.418299 -29.968681 0.000001 0.000003 -0.000000 0.541737 -14.645174 -0.071276 -0.000001 -0.000002 -3.005920 -5.000222 -7.998752 0.000163 -10.707016 65.103628 12.984558 -40.427108 112.937451 32.787302 0.000002 0.000019 0.000001 4.218549 11.782488 0.016287 -0.000004 -0.000007 3.002801 -5.000229 7.998731 -0.000166 -3.161363 -177.923149 -0.246638 -179.999991 0.000005 -1.014005 171.027349 -2.083208 -0.594866 0.000003 0.000000 0.156986 70.138366 6.825049 2.218114 25.464479 -7.351318 0.011403 -0.802406 178.556130 2.831490 -0.000005 -0.000004 -1.034130 -5.857035 2.819618 0.381603 -0.000002 0.000005 -0.079415 69.338209 -6.877948 -2.120625 25.453451 7.348011 0.005251 
